<mxfile host="65bd71144e">
    <diagram id="AHT3P7V4x3NLa9Gjy9Hc" name="第 1 页">
        <mxGraphModel dx="741" dy="441" grid="1" gridSize="10" guides="1" tooltips="1" connect="1" arrows="1" fold="1" page="1" pageScale="1" pageWidth="827" pageHeight="1169" math="1" shadow="0">
            <root>
                <mxCell id="0"/>
                <mxCell id="1" parent="0"/>
                <mxCell id="65" value="" style="endArrow=classic;html=1;startSize=6;endSize=6;strokeWidth=2;" parent="1" edge="1">
                    <mxGeometry width="50" height="50" relative="1" as="geometry">
                        <mxPoint x="240" y="180" as="sourcePoint"/>
                        <mxPoint x="280" y="180" as="targetPoint"/>
                    </mxGeometry>
                </mxCell>
                <mxCell id="66" value="" style="endArrow=classic;html=1;startSize=6;endSize=6;strokeWidth=2;" parent="1" edge="1">
                    <mxGeometry width="50" height="50" relative="1" as="geometry">
                        <mxPoint x="510" y="180" as="sourcePoint"/>
                        <mxPoint x="550" y="180" as="targetPoint"/>
                    </mxGeometry>
                </mxCell>
                <mxCell id="72" value="" style="group" parent="1" vertex="1" connectable="0">
                    <mxGeometry x="30" y="90" width="220" height="210" as="geometry"/>
                </mxCell>
                <mxCell id="71" style="edgeStyle=none;html=1;endArrow=none;endFill=0;" parent="72" source="2" edge="1">
                    <mxGeometry relative="1" as="geometry">
                        <mxPoint x="110" as="targetPoint"/>
                    </mxGeometry>
                </mxCell>
                <mxCell id="2" value="\(p\)" style="ellipse;whiteSpace=wrap;html=1;fontFamily=Times New Roman;fontSize=19;container=0;fillColor=#808080;fontColor=#FFFFFF;strokeWidth=0.5;fontStyle=0;" parent="72" vertex="1">
                    <mxGeometry x="90" y="20" width="40" height="40" as="geometry"/>
                </mxCell>
                <mxCell id="3" value="\(u\)" style="ellipse;whiteSpace=wrap;html=1;fontFamily=Times New Roman;fontSize=19;container=0;fillColor=#808080;fontColor=#FFFFFF;strokeWidth=0.5;fontStyle=0;" parent="72" vertex="1">
                    <mxGeometry x="30" y="70" width="40" height="40" as="geometry"/>
                </mxCell>
                <mxCell id="15" style="edgeStyle=none;html=1;endArrow=none;endFill=0;" parent="72" source="2" target="3" edge="1">
                    <mxGeometry relative="1" as="geometry"/>
                </mxCell>
                <mxCell id="4" value="\(s\)" style="ellipse;whiteSpace=wrap;html=1;fontFamily=Times New Roman;fontSize=19;container=0;fillColor=#DDD;strokeWidth=0.5;fontStyle=0;" parent="72" vertex="1">
                    <mxGeometry x="150" y="70" width="40" height="40" as="geometry"/>
                </mxCell>
                <mxCell id="16" style="edgeStyle=none;html=1;endArrow=none;endFill=0;" parent="72" source="2" target="4" edge="1">
                    <mxGeometry relative="1" as="geometry"/>
                </mxCell>
                <mxCell id="7" value="\(n_1\)" style="ellipse;whiteSpace=wrap;html=1;fontFamily=Times New Roman;fontSize=19;container=0;fillColor=#808080;fontColor=#FFFFFF;strokeWidth=0.5;fontStyle=0;" parent="72" vertex="1">
                    <mxGeometry x="120" y="120" width="40" height="40" as="geometry"/>
                </mxCell>
                <mxCell id="13" style="edgeStyle=none;html=1;endArrow=none;endFill=0;" parent="72" source="4" target="7" edge="1">
                    <mxGeometry relative="1" as="geometry"/>
                </mxCell>
                <mxCell id="8" value="\(n_2\)" style="ellipse;whiteSpace=wrap;html=1;fontFamily=Times New Roman;fontSize=19;container=0;fillColor=#808080;fontColor=#FFFFFF;strokeWidth=0.5;fontStyle=0;" parent="72" vertex="1">
                    <mxGeometry x="180" y="120" width="40" height="40" as="geometry"/>
                </mxCell>
                <mxCell id="14" style="edgeStyle=none;html=1;endArrow=none;endFill=0;" parent="72" source="4" target="8" edge="1">
                    <mxGeometry relative="1" as="geometry"/>
                </mxCell>
                <mxCell id="20" value="\(h-1\)" style="ellipse;whiteSpace=wrap;html=1;fontFamily=Times New Roman;fontSize=19;container=0;fillColor=none;strokeWidth=0.5;fontStyle=0;strokeColor=none;" parent="72" vertex="1">
                    <mxGeometry x="120" y="170" width="40" height="40" as="geometry"/>
                </mxCell>
                <mxCell id="11" style="edgeStyle=none;html=1;endArrow=none;endFill=0;" parent="72" source="7" target="20" edge="1">
                    <mxGeometry relative="1" as="geometry">
                        <mxPoint x="140" y="170" as="targetPoint"/>
                    </mxGeometry>
                </mxCell>
                <mxCell id="21" value="\(h-1\)" style="ellipse;whiteSpace=wrap;html=1;fontFamily=Times New Roman;fontSize=19;container=0;fillColor=none;strokeWidth=0.5;fontStyle=0;strokeColor=none;" parent="72" vertex="1">
                    <mxGeometry x="180" y="170" width="40" height="40" as="geometry"/>
                </mxCell>
                <mxCell id="12" style="edgeStyle=none;html=1;endArrow=none;endFill=0;" parent="72" source="8" target="21" edge="1">
                    <mxGeometry relative="1" as="geometry">
                        <mxPoint x="200" y="170" as="targetPoint"/>
                    </mxGeometry>
                </mxCell>
                <mxCell id="23" value="\(h-2\)" style="ellipse;whiteSpace=wrap;html=1;fontFamily=Times New Roman;fontSize=19;container=0;fillColor=none;strokeWidth=0.5;fontStyle=0;strokeColor=none;align=right;" parent="72" vertex="1">
                    <mxGeometry x="-20" y="120" width="60" height="40" as="geometry"/>
                </mxCell>
                <mxCell id="25" style="edgeStyle=none;html=1;endArrow=none;endFill=0;" parent="72" source="3" target="23" edge="1">
                    <mxGeometry relative="1" as="geometry"/>
                </mxCell>
                <mxCell id="24" value="\(h-2\)" style="ellipse;whiteSpace=wrap;html=1;fontFamily=Times New Roman;fontSize=19;container=0;fillColor=none;strokeWidth=0.5;fontStyle=0;strokeColor=none;" parent="72" vertex="1">
                    <mxGeometry x="60" y="120" width="40" height="40" as="geometry"/>
                </mxCell>
                <mxCell id="26" style="edgeStyle=none;html=1;endArrow=none;endFill=0;" parent="72" source="3" target="24" edge="1">
                    <mxGeometry relative="1" as="geometry"/>
                </mxCell>
                <mxCell id="74" value="" style="group" parent="1" vertex="1" connectable="0">
                    <mxGeometry x="280" y="90" width="220" height="210" as="geometry"/>
                </mxCell>
                <mxCell id="73" style="edgeStyle=none;html=1;endArrow=none;endFill=0;" parent="74" source="29" edge="1">
                    <mxGeometry relative="1" as="geometry">
                        <mxPoint x="110" as="targetPoint"/>
                    </mxGeometry>
                </mxCell>
                <mxCell id="29" value="\(p\)" style="ellipse;whiteSpace=wrap;html=1;fontFamily=Times New Roman;fontSize=19;container=0;fillColor=#DDD;fontColor=default;strokeWidth=0.5;fontStyle=0;" parent="74" vertex="1">
                    <mxGeometry x="90" y="20" width="40" height="40" as="geometry"/>
                </mxCell>
                <mxCell id="30" value="\(u\)" style="ellipse;whiteSpace=wrap;html=1;fontFamily=Times New Roman;fontSize=19;container=0;fillColor=#808080;fontColor=#FFFFFF;strokeWidth=0.5;fontStyle=0;" parent="74" vertex="1">
                    <mxGeometry x="30" y="70" width="40" height="40" as="geometry"/>
                </mxCell>
                <mxCell id="31" style="edgeStyle=none;html=1;endArrow=none;endFill=0;" parent="74" source="29" target="30" edge="1">
                    <mxGeometry relative="1" as="geometry"/>
                </mxCell>
                <mxCell id="32" value="\(s\)" style="ellipse;whiteSpace=wrap;html=1;fontFamily=Times New Roman;fontSize=19;container=0;fillColor=#808080;strokeWidth=0.5;fontStyle=0;fontColor=#FFFFFF;" parent="74" vertex="1">
                    <mxGeometry x="150" y="70" width="40" height="40" as="geometry"/>
                </mxCell>
                <mxCell id="33" style="edgeStyle=none;html=1;endArrow=none;endFill=0;" parent="74" source="29" target="32" edge="1">
                    <mxGeometry relative="1" as="geometry"/>
                </mxCell>
                <mxCell id="34" value="\(n_1\)" style="ellipse;whiteSpace=wrap;html=1;fontFamily=Times New Roman;fontSize=19;container=0;fillColor=#808080;fontColor=#FFFFFF;strokeWidth=0.5;fontStyle=0;" parent="74" vertex="1">
                    <mxGeometry x="120" y="120" width="40" height="40" as="geometry"/>
                </mxCell>
                <mxCell id="35" style="edgeStyle=none;html=1;endArrow=none;endFill=0;" parent="74" source="32" target="34" edge="1">
                    <mxGeometry relative="1" as="geometry"/>
                </mxCell>
                <mxCell id="36" value="\(n_2\)" style="ellipse;whiteSpace=wrap;html=1;fontFamily=Times New Roman;fontSize=19;container=0;fillColor=#808080;fontColor=#FFFFFF;strokeWidth=0.5;fontStyle=0;" parent="74" vertex="1">
                    <mxGeometry x="180" y="120" width="40" height="40" as="geometry"/>
                </mxCell>
                <mxCell id="37" style="edgeStyle=none;html=1;endArrow=none;endFill=0;" parent="74" source="32" target="36" edge="1">
                    <mxGeometry relative="1" as="geometry"/>
                </mxCell>
                <mxCell id="38" value="\(h-1\)" style="ellipse;whiteSpace=wrap;html=1;fontFamily=Times New Roman;fontSize=19;container=0;fillColor=none;strokeWidth=0.5;fontStyle=0;strokeColor=none;" parent="74" vertex="1">
                    <mxGeometry x="120" y="170" width="40" height="40" as="geometry"/>
                </mxCell>
                <mxCell id="39" style="edgeStyle=none;html=1;endArrow=none;endFill=0;" parent="74" source="34" target="38" edge="1">
                    <mxGeometry relative="1" as="geometry">
                        <mxPoint x="140" y="170" as="targetPoint"/>
                    </mxGeometry>
                </mxCell>
                <mxCell id="40" value="\(h-1\)" style="ellipse;whiteSpace=wrap;html=1;fontFamily=Times New Roman;fontSize=19;container=0;fillColor=none;strokeWidth=0.5;fontStyle=0;strokeColor=none;" parent="74" vertex="1">
                    <mxGeometry x="180" y="170" width="40" height="40" as="geometry"/>
                </mxCell>
                <mxCell id="41" style="edgeStyle=none;html=1;endArrow=none;endFill=0;" parent="74" source="36" target="40" edge="1">
                    <mxGeometry relative="1" as="geometry">
                        <mxPoint x="200" y="170" as="targetPoint"/>
                    </mxGeometry>
                </mxCell>
                <mxCell id="42" value="\(h-2\)" style="ellipse;whiteSpace=wrap;html=1;fontFamily=Times New Roman;fontSize=19;container=0;fillColor=none;strokeWidth=0.5;fontStyle=0;strokeColor=none;" parent="74" vertex="1">
                    <mxGeometry y="120" width="40" height="40" as="geometry"/>
                </mxCell>
                <mxCell id="43" style="edgeStyle=none;html=1;endArrow=none;endFill=0;" parent="74" source="30" target="42" edge="1">
                    <mxGeometry relative="1" as="geometry"/>
                </mxCell>
                <mxCell id="44" value="\(h-2\)" style="ellipse;whiteSpace=wrap;html=1;fontFamily=Times New Roman;fontSize=19;container=0;fillColor=none;strokeWidth=0.5;fontStyle=0;strokeColor=none;" parent="74" vertex="1">
                    <mxGeometry x="60" y="120" width="40" height="40" as="geometry"/>
                </mxCell>
                <mxCell id="45" style="edgeStyle=none;html=1;endArrow=none;endFill=0;" parent="74" source="30" target="44" edge="1">
                    <mxGeometry relative="1" as="geometry"/>
                </mxCell>
                <mxCell id="76" value="" style="group" parent="1" vertex="1" connectable="0">
                    <mxGeometry x="520" y="90" width="220" height="210" as="geometry"/>
                </mxCell>
                <mxCell id="47" value="\(p\)" style="ellipse;whiteSpace=wrap;html=1;fontFamily=Times New Roman;fontSize=19;container=0;fillColor=#DDD;fontColor=default;strokeWidth=0.5;fontStyle=0;" parent="76" vertex="1">
                    <mxGeometry x="75" y="70" width="40" height="40" as="geometry"/>
                </mxCell>
                <mxCell id="48" value="\(u\)" style="ellipse;whiteSpace=wrap;html=1;fontFamily=Times New Roman;fontSize=19;container=0;fillColor=#808080;fontColor=#FFFFFF;strokeWidth=0.5;fontStyle=0;" parent="76" vertex="1">
                    <mxGeometry x="30" y="120" width="40" height="40" as="geometry"/>
                </mxCell>
                <mxCell id="49" style="edgeStyle=none;html=1;endArrow=none;endFill=0;" parent="76" source="47" target="48" edge="1">
                    <mxGeometry relative="1" as="geometry"/>
                </mxCell>
                <mxCell id="75" style="edgeStyle=none;html=1;endArrow=none;endFill=0;" parent="76" source="50" edge="1">
                    <mxGeometry relative="1" as="geometry">
                        <mxPoint x="147.5" as="targetPoint"/>
                    </mxGeometry>
                </mxCell>
                <mxCell id="50" value="\(s\)" style="ellipse;whiteSpace=wrap;html=1;fontFamily=Times New Roman;fontSize=19;container=0;fillColor=#808080;strokeWidth=0.5;fontStyle=0;fontColor=#FFFFFF;" parent="76" vertex="1">
                    <mxGeometry x="127.5" y="20" width="40" height="40" as="geometry"/>
                </mxCell>
                <mxCell id="51" style="edgeStyle=none;html=1;endArrow=none;endFill=0;" parent="76" source="47" target="50" edge="1">
                    <mxGeometry relative="1" as="geometry"/>
                </mxCell>
                <mxCell id="52" value="\(n_1\)" style="ellipse;whiteSpace=wrap;html=1;fontFamily=Times New Roman;fontSize=19;container=0;fillColor=#808080;fontColor=#FFFFFF;strokeWidth=0.5;fontStyle=0;" parent="76" vertex="1">
                    <mxGeometry x="120" y="120" width="40" height="40" as="geometry"/>
                </mxCell>
                <mxCell id="53" style="edgeStyle=none;html=1;endArrow=none;endFill=0;" parent="76" source="47" target="52" edge="1">
                    <mxGeometry relative="1" as="geometry"/>
                </mxCell>
                <mxCell id="54" value="\(n_2\)" style="ellipse;whiteSpace=wrap;html=1;fontFamily=Times New Roman;fontSize=19;container=0;fillColor=#808080;fontColor=#FFFFFF;strokeWidth=0.5;fontStyle=0;" parent="76" vertex="1">
                    <mxGeometry x="180" y="70" width="40" height="40" as="geometry"/>
                </mxCell>
                <mxCell id="55" style="edgeStyle=none;html=1;endArrow=none;endFill=0;" parent="76" source="50" target="54" edge="1">
                    <mxGeometry relative="1" as="geometry"/>
                </mxCell>
                <mxCell id="56" value="\(h-1\)" style="ellipse;whiteSpace=wrap;html=1;fontFamily=Times New Roman;fontSize=19;container=0;fillColor=none;strokeWidth=0.5;fontStyle=0;strokeColor=none;" parent="76" vertex="1">
                    <mxGeometry x="120" y="170" width="40" height="40" as="geometry"/>
                </mxCell>
                <mxCell id="57" style="edgeStyle=none;html=1;endArrow=none;endFill=0;" parent="76" source="52" target="56" edge="1">
                    <mxGeometry relative="1" as="geometry">
                        <mxPoint x="140" y="220" as="targetPoint"/>
                    </mxGeometry>
                </mxCell>
                <mxCell id="58" value="\(h-1\)" style="ellipse;whiteSpace=wrap;html=1;fontFamily=Times New Roman;fontSize=19;container=0;fillColor=none;strokeWidth=0.5;fontStyle=0;strokeColor=none;" parent="76" vertex="1">
                    <mxGeometry x="180" y="130" width="40" height="40" as="geometry"/>
                </mxCell>
                <mxCell id="59" style="edgeStyle=none;html=1;endArrow=none;endFill=0;" parent="76" source="54" target="58" edge="1">
                    <mxGeometry relative="1" as="geometry">
                        <mxPoint x="200" y="180" as="targetPoint"/>
                    </mxGeometry>
                </mxCell>
                <mxCell id="60" value="\(h-2\)" style="ellipse;whiteSpace=wrap;html=1;fontFamily=Times New Roman;fontSize=19;container=0;fillColor=none;strokeWidth=0.5;fontStyle=0;strokeColor=none;" parent="76" vertex="1">
                    <mxGeometry y="170" width="40" height="40" as="geometry"/>
                </mxCell>
                <mxCell id="61" style="edgeStyle=none;html=1;endArrow=none;endFill=0;" parent="76" source="48" target="60" edge="1">
                    <mxGeometry relative="1" as="geometry"/>
                </mxCell>
                <mxCell id="62" value="\(h-2\)" style="ellipse;whiteSpace=wrap;html=1;fontFamily=Times New Roman;fontSize=19;container=0;fillColor=none;strokeWidth=0.5;fontStyle=0;strokeColor=none;" parent="76" vertex="1">
                    <mxGeometry x="60" y="170" width="40" height="40" as="geometry"/>
                </mxCell>
                <mxCell id="63" style="edgeStyle=none;html=1;endArrow=none;endFill=0;" parent="76" source="48" target="62" edge="1">
                    <mxGeometry relative="1" as="geometry"/>
                </mxCell>
            </root>
        </mxGraphModel>
    </diagram>
</mxfile>